<mxfile host="app.diagrams.net" agent="Mozilla/5.0 (Windows NT 10.0; Win64; x64) AppleWebKit/537.36 (KHTML, like Gecko) Chrome/128.0.0.0 Safari/537.36" version="24.7.16">
  <diagram name="Страница — 1" id="Pf1Np9UMUW1Pc0cCED0l">
    <mxGraphModel dx="1290" dy="1691" grid="1" gridSize="10" guides="1" tooltips="1" connect="1" arrows="1" fold="1" page="1" pageScale="1" pageWidth="827" pageHeight="1169" math="0" shadow="0">
      <root>
        <mxCell id="0" />
        <mxCell id="1" parent="0" />
        <mxCell id="yrjhJdfTxnekdjxeJVyZ-1" value="Start" style="ellipse;whiteSpace=wrap;html=1;" vertex="1" parent="1">
          <mxGeometry x="340" y="-1150" width="120" height="80" as="geometry" />
        </mxCell>
        <mxCell id="yrjhJdfTxnekdjxeJVyZ-2" value="" style="endArrow=classic;html=1;rounded=0;exitX=0.5;exitY=1;exitDx=0;exitDy=0;" edge="1" parent="1" source="yrjhJdfTxnekdjxeJVyZ-1">
          <mxGeometry width="50" height="50" relative="1" as="geometry">
            <mxPoint x="390" y="-1040" as="sourcePoint" />
            <mxPoint x="400" y="-1020" as="targetPoint" />
          </mxGeometry>
        </mxCell>
        <mxCell id="yrjhJdfTxnekdjxeJVyZ-3" value="Ввід розміру n масиву, й інціалізація масиву чисел й масиву префіксних сум" style="rounded=0;whiteSpace=wrap;html=1;" vertex="1" parent="1">
          <mxGeometry x="320" y="-1020" width="160" height="60" as="geometry" />
        </mxCell>
        <mxCell id="yrjhJdfTxnekdjxeJVyZ-4" value="Ввід n чисел в масив, й обрахування префіксної суми для кожного елемента" style="rounded=0;whiteSpace=wrap;html=1;" vertex="1" parent="1">
          <mxGeometry x="320" y="-920" width="160" height="60" as="geometry" />
        </mxCell>
        <mxCell id="yrjhJdfTxnekdjxeJVyZ-5" value="" style="endArrow=classic;html=1;rounded=0;exitX=0.5;exitY=1;exitDx=0;exitDy=0;" edge="1" parent="1">
          <mxGeometry width="50" height="50" relative="1" as="geometry">
            <mxPoint x="399.5" y="-960" as="sourcePoint" />
            <mxPoint x="400" y="-920" as="targetPoint" />
          </mxGeometry>
        </mxCell>
        <mxCell id="yrjhJdfTxnekdjxeJVyZ-6" value="Ініціалізація масиву для сум згідно до запиту 1, змінної type, що приймає тип запиту" style="rounded=0;whiteSpace=wrap;html=1;" vertex="1" parent="1">
          <mxGeometry x="320" y="-820" width="160" height="60" as="geometry" />
        </mxCell>
        <mxCell id="yrjhJdfTxnekdjxeJVyZ-7" value="" style="endArrow=classic;html=1;rounded=0;exitX=0.5;exitY=1;exitDx=0;exitDy=0;" edge="1" parent="1">
          <mxGeometry width="50" height="50" relative="1" as="geometry">
            <mxPoint x="399.5" y="-860" as="sourcePoint" />
            <mxPoint x="400" y="-820" as="targetPoint" />
          </mxGeometry>
        </mxCell>
        <mxCell id="yrjhJdfTxnekdjxeJVyZ-8" value="if type == 1" style="rhombus;whiteSpace=wrap;html=1;" vertex="1" parent="1">
          <mxGeometry x="180" y="-584" width="160" height="80" as="geometry" />
        </mxCell>
        <mxCell id="yrjhJdfTxnekdjxeJVyZ-9" value="" style="endArrow=classic;html=1;rounded=0;exitX=0.5;exitY=1;exitDx=0;exitDy=0;entryX=0.5;entryY=0;entryDx=0;entryDy=0;" edge="1" parent="1" source="yrjhJdfTxnekdjxeJVyZ-6" target="yrjhJdfTxnekdjxeJVyZ-16">
          <mxGeometry width="50" height="50" relative="1" as="geometry">
            <mxPoint x="560" y="-720" as="sourcePoint" />
            <mxPoint x="610" y="-770" as="targetPoint" />
          </mxGeometry>
        </mxCell>
        <mxCell id="yrjhJdfTxnekdjxeJVyZ-10" value="" style="endArrow=classic;html=1;rounded=0;exitX=1;exitY=0.5;exitDx=0;exitDy=0;entryX=0.5;entryY=0;entryDx=0;entryDy=0;fontStyle=1" edge="1" parent="1" source="yrjhJdfTxnekdjxeJVyZ-8" target="yrjhJdfTxnekdjxeJVyZ-11">
          <mxGeometry width="50" height="50" relative="1" as="geometry">
            <mxPoint x="420" y="-584" as="sourcePoint" />
            <mxPoint x="470" y="-634" as="targetPoint" />
            <Array as="points">
              <mxPoint x="440" y="-544" />
            </Array>
          </mxGeometry>
        </mxCell>
        <mxCell id="yrjhJdfTxnekdjxeJVyZ-15" value="False" style="edgeLabel;html=1;align=center;verticalAlign=middle;resizable=0;points=[];" vertex="1" connectable="0" parent="yrjhJdfTxnekdjxeJVyZ-10">
          <mxGeometry x="-0.1029" y="1" relative="1" as="geometry">
            <mxPoint as="offset" />
          </mxGeometry>
        </mxCell>
        <mxCell id="yrjhJdfTxnekdjxeJVyZ-11" value="Прийняття індексу й даданку, й додавання до елементу цього індексу данного доданку" style="rounded=0;whiteSpace=wrap;html=1;" vertex="1" parent="1">
          <mxGeometry x="360" y="-504" width="160" height="60" as="geometry" />
        </mxCell>
        <mxCell id="yrjhJdfTxnekdjxeJVyZ-12" value="Прийняття ідексів масиву й обрахування суми елементів в їхньому діапазоні" style="rounded=0;whiteSpace=wrap;html=1;" vertex="1" parent="1">
          <mxGeometry y="-504" width="160" height="60" as="geometry" />
        </mxCell>
        <mxCell id="yrjhJdfTxnekdjxeJVyZ-13" value="True" style="endArrow=classic;html=1;rounded=0;exitX=0;exitY=0.5;exitDx=0;exitDy=0;entryX=0.5;entryY=0;entryDx=0;entryDy=0;" edge="1" parent="1" source="yrjhJdfTxnekdjxeJVyZ-8" target="yrjhJdfTxnekdjxeJVyZ-12">
          <mxGeometry width="50" height="50" relative="1" as="geometry">
            <mxPoint x="60" y="-544" as="sourcePoint" />
            <mxPoint x="160" y="-504" as="targetPoint" />
            <Array as="points">
              <mxPoint x="80" y="-544" />
            </Array>
          </mxGeometry>
        </mxCell>
        <mxCell id="yrjhJdfTxnekdjxeJVyZ-16" value="Запуск циклу тривалість в число m(кількість запитів)" style="rhombus;whiteSpace=wrap;html=1;" vertex="1" parent="1">
          <mxGeometry x="290" y="-710" width="220" height="90" as="geometry" />
        </mxCell>
        <mxCell id="yrjhJdfTxnekdjxeJVyZ-17" value="Цикл триває" style="endArrow=classic;html=1;rounded=0;exitX=0;exitY=0.5;exitDx=0;exitDy=0;" edge="1" parent="1" source="yrjhJdfTxnekdjxeJVyZ-16" target="yrjhJdfTxnekdjxeJVyZ-8">
          <mxGeometry width="50" height="50" relative="1" as="geometry">
            <mxPoint x="290" y="-660" as="sourcePoint" />
            <mxPoint x="190" y="-620" as="targetPoint" />
            <Array as="points">
              <mxPoint x="260" y="-665" />
            </Array>
          </mxGeometry>
        </mxCell>
        <mxCell id="yrjhJdfTxnekdjxeJVyZ-18" value="" style="endArrow=classic;html=1;rounded=0;exitX=1;exitY=0.5;exitDx=0;exitDy=0;" edge="1" parent="1" source="yrjhJdfTxnekdjxeJVyZ-16">
          <mxGeometry width="50" height="50" relative="1" as="geometry">
            <mxPoint x="510" y="-660" as="sourcePoint" />
            <mxPoint x="660" y="-610" as="targetPoint" />
            <Array as="points">
              <mxPoint x="660" y="-665" />
            </Array>
          </mxGeometry>
        </mxCell>
        <mxCell id="yrjhJdfTxnekdjxeJVyZ-20" value="Цикл закінчився" style="edgeLabel;html=1;align=center;verticalAlign=middle;resizable=0;points=[];" vertex="1" connectable="0" parent="yrjhJdfTxnekdjxeJVyZ-18">
          <mxGeometry x="-0.358" y="-1" relative="1" as="geometry">
            <mxPoint as="offset" />
          </mxGeometry>
        </mxCell>
        <mxCell id="yrjhJdfTxnekdjxeJVyZ-22" value="Виведення сум елементів заданих із запитів першого типу й видалення показників на масиви. Кінець" style="ellipse;whiteSpace=wrap;html=1;" vertex="1" parent="1">
          <mxGeometry x="570" y="-610" width="180" height="100" as="geometry" />
        </mxCell>
      </root>
    </mxGraphModel>
  </diagram>
</mxfile>
